<svg width="24" height="15" viewBox="0 0 24 15" fill="none" xmlns="http://www.w3.org/2000/svg">
<path d="M11.2895 15L6.28553 0.959999H5.00753L0.0755313 15H1.69553L3.08153 10.95H8.22953L9.65153 15H11.2895ZM5.33153 4.362C5.49353 3.858 5.51153 3.462 5.51153 2.886V2.454C5.51153 2.364 5.54753 2.328 5.61953 2.328C5.69153 2.328 5.72753 2.364 5.72753 2.454V2.886C5.72753 3.462 5.72753 3.84 5.90753 4.362L7.72553 9.546H3.56753L5.33153 4.362ZM23.1548 15L18.1508 0.959999H16.8728L11.9408 15H13.5608L14.9468 10.95H20.0948L21.5168 15H23.1548ZM17.1968 4.362C17.3588 3.858 17.3768 3.462 17.3768 2.886V2.454C17.3768 2.364 17.4128 2.328 17.4848 2.328C17.5568 2.328 17.5928 2.364 17.5928 2.454V2.886C17.5928 3.462 17.5928 3.84 17.7728 4.362L19.5908 9.546H15.4328L17.1968 4.362Z" fill="black"/>
</svg>
