<svg width="21" height="16" viewBox="0 0 21 16" fill="none" xmlns="http://www.w3.org/2000/svg">
<path d="M11.2231 15L6.21913 0.959999H4.94113L0.00912502 15H1.62913L3.01513 10.95H8.16313L9.58513 15H11.2231ZM5.26513 4.362C5.42713 3.858 5.44513 3.462 5.44513 2.886V2.454C5.44513 2.364 5.48113 2.328 5.55313 2.328C5.62513 2.328 5.66113 2.364 5.66113 2.454V2.886C5.66113 3.462 5.66113 3.84 5.84113 4.362L7.65913 9.546H3.50113L5.26513 4.362ZM12.2884 12.138C12.2884 13.776 13.4224 15.252 15.3664 15.252C16.8064 15.252 18.2284 14.352 18.9484 11.742C18.9664 11.688 19.0024 11.652 19.0564 11.652C19.1104 11.652 19.1464 11.688 19.1464 11.76C19.1464 12.012 18.5344 13.362 18.7324 14.424L18.8404 15H20.1364V7.818C20.1364 5.712 18.6604 4.326 16.4464 4.326C14.5564 4.326 13.3504 5.226 12.5404 6.666L13.8184 7.44C14.4844 6.396 15.0244 5.658 16.4824 5.658C17.6524 5.658 18.6964 6.108 18.6964 7.548C18.6964 8.376 18.3184 8.466 15.9064 8.736C13.8364 8.97 12.2884 10.284 12.2884 12.138ZM13.8004 12.048C13.8004 10.644 15.0424 9.924 16.2484 9.78C17.2384 9.654 18.1024 9.672 18.6964 9.42C18.3184 12.57 16.9864 13.938 15.4924 13.938C14.3404 13.938 13.8004 13.164 13.8004 12.048Z" fill="black"/>
</svg>
