<svg width="24" height="24" viewBox="0 0 24 24" fill="none" xmlns="http://www.w3.org/2000/svg">
<path d="M5 5.5C4.72386 5.5 4.5 5.72386 4.5 6C4.5 6.27614 4.72386 6.5 5 6.5V5.5ZM19 6.5C19.2761 6.5 19.5 6.27614 19.5 6C19.5 5.72386 19.2761 5.5 19 5.5V6.5ZM5 6.5H19V5.5H5V6.5Z" fill="black"/>
<path d="M11 11.5C10.7239 11.5 10.5 11.7239 10.5 12C10.5 12.2761 10.7239 12.5 11 12.5V11.5ZM19 12.5C19.2761 12.5 19.5 12.2761 19.5 12C19.5 11.7239 19.2761 11.5 19 11.5V12.5ZM11 12.5L19 12.5V11.5L11 11.5V12.5Z" fill="black"/>
<path d="M7 17.5C6.72386 17.5 6.5 17.7239 6.5 18C6.5 18.2761 6.72386 18.5 7 18.5V17.5ZM19 18.5C19.2761 18.5 19.5 18.2761 19.5 18C19.5 17.7239 19.2761 17.5 19 17.5V18.5ZM7 18.5H19V17.5H7V18.5Z" fill="black"/>
</svg>
