<svg width="24" height="24" viewBox="0 0 24 24" fill="none" xmlns="http://www.w3.org/2000/svg">
<path d="M5 5.5C4.72386 5.5 4.5 5.72386 4.5 6C4.5 6.27614 4.72386 6.5 5 6.5V5.5ZM19 6.5C19.2761 6.5 19.5 6.27614 19.5 6C19.5 5.72386 19.2761 5.5 19 5.5V6.5ZM5 6.5H19V5.5H5V6.5Z" fill="black"/>
<path d="M5 11.5C4.72386 11.5 4.5 11.7239 4.5 12C4.5 12.2761 4.72386 12.5 5 12.5V11.5ZM13 12.5C13.2761 12.5 13.5 12.2761 13.5 12C13.5 11.7239 13.2761 11.5 13 11.5V12.5ZM5 12.5H13V11.5H5V12.5Z" fill="black"/>
<path d="M5 17.5C4.72386 17.5 4.5 17.7239 4.5 18C4.5 18.2761 4.72386 18.5 5 18.5V17.5ZM17 18.5C17.2761 18.5 17.5 18.2761 17.5 18C17.5 17.7239 17.2761 17.5 17 17.5V18.5ZM5 18.5H17V17.5H5V18.5Z" fill="black"/>
</svg>
