<svg width="24" height="24" viewBox="0 0 24 24" fill="none" xmlns="http://www.w3.org/2000/svg">
<path d="M5 5.5C4.72386 5.5 4.5 5.72386 4.5 6C4.5 6.27614 4.72386 6.5 5 6.5V5.5ZM19 6.5C19.2761 6.5 19.5 6.27614 19.5 6C19.5 5.72386 19.2761 5.5 19 5.5V6.5ZM5 6.5H19V5.5H5V6.5Z" fill="black"/>
<path d="M8 11.5C7.72386 11.5 7.5 11.7239 7.5 12C7.5 12.2761 7.72386 12.5 8 12.5V11.5ZM16 12.5C16.2761 12.5 16.5 12.2761 16.5 12C16.5 11.7239 16.2761 11.5 16 11.5V12.5ZM8 12.5H16V11.5H8V12.5Z" fill="black"/>
<path d="M6 17.5C5.72386 17.5 5.5 17.7239 5.5 18C5.5 18.2761 5.72386 18.5 6 18.5V17.5ZM18 18.5C18.2761 18.5 18.5 18.2761 18.5 18C18.5 17.7239 18.2761 17.5 18 17.5V18.5ZM6 18.5H18V17.5H6V18.5Z" fill="black"/>
</svg>
